<svg xmlns="http://www.w3.org/2000/svg" viewBox="0 0 120 120" role="img" aria-labelledby="title desc">
  <title id="title">Salarium Imperial Edge Glyph</title>
  <desc id="desc">A proprietary serif-cut S with a restrained portrait notch, surrounded by an institutional candlestick ring.</desc>
  <circle cx="60" cy="60" r="42" fill="none" stroke="#3b403d"/>
  <defs>
    <g id="a"><path d="M60 3v15" stroke="currentColor" stroke-width="1.4"/><rect x="57.7" y="6" width="4.6" height="8" fill="currentColor"/></g>
    <g id="b"><path d="M60 4v13" stroke="currentColor" stroke-width="1.4"/><rect x="57.7" y="7" width="4.6" height="6" fill="currentColor"/></g>
  </defs>
  <g color="#737a76"><use href="#a"/><use href="#b" transform="rotate(15 60 60)"/><use href="#b" transform="rotate(165 60 60)"/><use href="#a" transform="rotate(180 60 60)"/><use href="#b" transform="rotate(195 60 60)"/><use href="#b" transform="rotate(345 60 60)"/></g>
  <g color="#e26363"><use href="#a" transform="rotate(30 60 60)"/><use href="#b" transform="rotate(45 60 60)"/><use href="#a" transform="rotate(60 60 60)"/><use href="#b" transform="rotate(75 60 60)"/><use href="#a" transform="rotate(90 60 60)"/><use href="#b" transform="rotate(105 60 60)"/><use href="#a" transform="rotate(120 60 60)"/><use href="#b" transform="rotate(135 60 60)"/><use href="#a" transform="rotate(150 60 60)"/></g>
  <g color="#42d98b"><use href="#b" transform="rotate(210 60 60)"/><use href="#a" transform="rotate(225 60 60)"/><use href="#b" transform="rotate(240 60 60)"/><use href="#a" transform="rotate(255 60 60)"/><use href="#b" transform="rotate(270 60 60)"/><use href="#a" transform="rotate(285 60 60)"/><use href="#b" transform="rotate(300 60 60)"/><use href="#a" transform="rotate(315 60 60)"/><use href="#b" transform="rotate(330 60 60)"/></g>
  <path d="M80 35H53c-10.5 0-18 5.8-18 14.2 0 7.1 4.7 11.5 13.7 14l18.7 5.1c3.5 1 5.1 2.3 5.1 4.5 0 3.1-2.8 5.2-7.2 5.2H43l-5 8h28.8C77.5 86 85 80.3 85 71.5c0-7.2-4.6-11.7-13.6-14.2l-18.8-5.2c-3.4-.9-5-2.1-5-4.1 0-2.6 2.6-4.2 6.8-4.2h18.8L80 35Z" fill="#f4f6f4"/>
  <path d="M65.2 43.8c.2 3.2-1.2 5.8-4.2 7.8l4.5 1.3 3.6-2.6-1.8-2.2 2.8-1.7-1.5-2.6h-3.4Z" fill="#090b0a"/>
  <path d="M44 58.5h29M45 72h27" stroke="#090b0a" stroke-width="1.35" opacity=".48"/>
</svg>
